
        <svg xmlns="http://www.w3.org/2000/svg" xmlns:xlink="http://www.w3.org/1999/xlink" version="1.1" width="3162.2002820874472" 
        height="504.33470157466877" viewBox="0 0 3162.2002820874472 504.33470157466877">
			
			<g transform="scale(8.110014104372354) translate(10, 10)">
				<defs id="SvgjsDefs1026"></defs><g id="SvgjsG1027" featureKey="G09qjj-0" transform="matrix(1.0646744619141324,0,0,1.0646744619141324,-9.93341264843064,-25.29240706958399)" fill="#000000"><g xmlns="http://www.w3.org/2000/svg"><path d="M74.852,23.756H15.275c-3.284,0-5.945,2.661-5.945,5.944v27.737c0,3.281,2.661,5.943,5.945,5.943h59.577   c3.283,0,5.943-2.662,5.943-5.943V29.7C80.795,26.417,78.135,23.756,74.852,23.756z M14.64,59.879   c-0.663,0-1.202-0.539-1.202-1.201c0-0.664,0.539-1.203,1.202-1.203c0.663,0,1.203,0.539,1.203,1.203   C15.843,59.34,15.303,59.879,14.64,59.879z M14.64,30.103c-0.663,0-1.202-0.54-1.202-1.203s0.539-1.203,1.202-1.203   c0.663,0,1.203,0.54,1.203,1.203S15.303,30.103,14.64,30.103z M24.274,50.625c-3.891,0-7.057-3.166-7.057-7.057   c0-3.891,3.166-7.057,7.057-7.057s7.057,3.166,7.057,7.057C31.332,47.459,28.166,50.625,24.274,50.625z M33.381,56.182   c-2.021,0-3.665-1.645-3.665-3.666c0-2.02,1.645-3.664,3.665-3.664c2.021,0,3.665,1.645,3.665,3.664   C37.046,54.537,35.402,56.182,33.381,56.182z M45.062,53.088c-5.249,0-9.52-4.27-9.52-9.52c0-5.248,4.271-9.519,9.52-9.519   c5.25,0,9.521,4.271,9.521,9.519C54.583,48.818,50.312,53.088,45.062,53.088z M56.744,56.182c-2.021,0-3.664-1.645-3.664-3.666   c0-2.02,1.644-3.664,3.664-3.664c2.021,0,3.666,1.645,3.666,3.664C60.41,54.537,58.766,56.182,56.744,56.182z M65.852,50.625   c-3.892,0-7.058-3.166-7.058-7.057c0-3.891,3.166-7.057,7.058-7.057c3.891,0,7.057,3.166,7.057,7.057   C72.908,47.459,69.742,50.625,65.852,50.625z M75.567,59.879c-0.663,0-1.202-0.539-1.202-1.201c0-0.664,0.539-1.203,1.202-1.203   s1.202,0.539,1.202,1.203C76.77,59.34,76.23,59.879,75.567,59.879z M75.567,30.103c-0.663,0-1.202-0.54-1.202-1.203   s0.539-1.203,1.202-1.203s1.202,0.54,1.202,1.203S76.23,30.103,75.567,30.103z"></path><path d="M56.744,49.539c-1.641,0-2.978,1.336-2.978,2.977c0,1.643,1.337,2.979,2.978,2.979c1.643,0,2.979-1.336,2.979-2.979   C59.723,50.875,58.387,49.539,56.744,49.539z"></path><path d="M33.374,49.539c-1.642,0-2.978,1.336-2.978,2.977c0,1.643,1.336,2.979,2.978,2.979c1.642,0,2.978-1.336,2.978-2.979   C36.351,50.875,35.015,49.539,33.374,49.539z"></path><circle cx="75.567" cy="58.677" r="0.858"></circle><circle cx="14.64" cy="58.677" r="0.858"></circle><circle cx="14.64" cy="28.9" r="0.859"></circle><circle cx="75.567" cy="28.9" r="0.859"></circle><path d="M24.274,37.456c-3.37,0-6.112,2.742-6.112,6.112c0,3.372,2.742,6.114,6.112,6.114c3.371,0,6.113-2.742,6.113-6.114   C30.387,40.198,27.645,37.456,24.274,37.456z M24.274,45.04c-0.811,0-1.471-0.66-1.471-1.472c0-0.811,0.66-1.471,1.471-1.471   s1.471,0.66,1.471,1.471C25.746,44.379,25.085,45.04,24.274,45.04z"></path><path d="M65.852,37.456c-3.371,0-6.113,2.742-6.113,6.112c0,3.372,2.742,6.114,6.113,6.114s6.113-2.742,6.113-6.114   C71.965,40.198,69.223,37.456,65.852,37.456z M65.852,45.04c-0.812,0-1.472-0.66-1.472-1.472c0-0.811,0.66-1.471,1.472-1.471   c0.811,0,1.471,0.66,1.471,1.471C67.322,44.379,66.662,45.04,65.852,45.04z"></path><path d="M45.062,34.994c-4.729,0-8.575,3.846-8.575,8.574c0,4.729,3.847,8.577,8.575,8.577s8.576-3.848,8.576-8.577   C53.639,38.839,49.791,34.994,45.062,34.994z M45.062,47.502c-2.169,0-3.934-1.764-3.934-3.934c0-2.168,1.764-3.933,3.934-3.933   c2.17,0,3.935,1.765,3.935,3.933C48.997,45.738,47.232,47.502,45.062,47.502z"></path><path d="M33.381,49.08c-1.894,0-3.436,1.541-3.436,3.436s1.542,3.436,3.436,3.436c1.895,0,3.436-1.541,3.436-3.436   S35.275,49.08,33.381,49.08z M33.381,55.723c-1.768,0-3.207-1.438-3.207-3.207c0-1.768,1.438-3.205,3.207-3.205   c1.769,0,3.207,1.438,3.207,3.205C36.588,54.285,35.149,55.723,33.381,55.723z"></path><path d="M56.744,49.08c-1.895,0-3.436,1.541-3.436,3.436s1.541,3.436,3.436,3.436c1.896,0,3.437-1.541,3.437-3.436   S58.64,49.08,56.744,49.08z M56.744,55.723c-1.768,0-3.206-1.438-3.206-3.207c0-1.768,1.438-3.205,3.206-3.205   c1.77,0,3.207,1.438,3.207,3.205C59.951,54.285,58.514,55.723,56.744,55.723z"></path></g></g><g id="SvgjsG1028" featureKey="0yvIkK-0" transform="matrix(2.081089907611554,0,0,2.081089907611554,95.20918559694577,-5.404373725745952)" fill="#000000"><path d="M8.16 20.28 c-5.08 0 -7.78 -3 -7.78 -7.34 l0 -0.16 c0 -4.44 3.4 -7.3 7.78 -7.3 c3.66 0 6.92 1.64 7.1 5.64 l-5.26 0 c-0.08 -0.86 -0.6 -1.46 -1.82 -1.46 c-1.36 0 -2.26 1.12 -2.26 3.22 l0 0.16 c0 1.7 0.42 3.22 2.44 3.22 c1.44 0 1.94 -0.62 2.08 -1.16 l-2 0 l0 -3.24 l7.14 0 l0 2 c0 3.4 -2.28 6.42 -7.42 6.42 z M17.1 20 l0 -14.3 l10.68 0 l0 4.06 l-5.38 0 l0 1.22 l4.24 0 l0 3.68 l-4.24 0 l0 1.28 l5.68 0 l0 4.06 l-10.98 0 z M32.44 20 l0 -10.22 l-3.46 0 l0 -4.08 l12.28 0 l0 4.08 l-3.46 0 l0 10.22 l-5.36 0 z M42.76 20 l0 -14.3 l7.46 0 c3.76 0 4.94 1.84 4.94 3.76 l0 0.08 c0 1.76 -0.98 2.76 -2.56 3.1 c1.58 0.22 2.86 1.26 2.86 3.3 l0 0.08 c0 2.5 -1.56 3.98 -5.46 3.98 l-7.24 0 z M47.94 16.56 l0.96 0 c0.9 0 1.32 -0.44 1.32 -1.16 l0 -0.08 c0 -0.72 -0.38 -1.14 -1.38 -1.14 l-0.9 0 l0 2.38 z M47.94 11.1 l1.04 0 c0.84 0 1.18 -0.28 1.18 -0.92 l0 -0.08 c0 -0.64 -0.32 -0.98 -1.18 -0.98 l-1.04 0 l0 1.98 z M64 16.12 c1.4 0 2.3 -1.12 2.3 -3.2 l0 -0.16 c0 -2.2 -0.96 -3.14 -2.32 -3.14 c-1.34 0 -2.26 0.96 -2.26 3.14 l0 0.16 c0 2.16 0.82 3.2 2.28 3.2 z M63.86 20.28 c-4.82 0 -7.7 -2.9 -7.7 -7.34 l0 -0.16 c0 -4.52 3.5 -7.3 7.82 -7.3 c4.44 0 7.88 2.5 7.88 7.16 l0 0.16 c0 4.58 -3.14 7.48 -8 7.48 z M80.46 16.12 c1.4 0 2.3 -1.12 2.3 -3.2 l0 -0.16 c0 -2.2 -0.96 -3.14 -2.32 -3.14 c-1.34 0 -2.26 0.96 -2.26 3.14 l0 0.16 c0 2.16 0.82 3.2 2.28 3.2 z M80.32 20.28 c-4.82 0 -7.7 -2.9 -7.7 -7.34 l0 -0.16 c0 -4.52 3.5 -7.3 7.82 -7.3 c4.44 0 7.88 2.5 7.88 7.16 l0 0.16 c0 4.58 -3.14 7.48 -8 7.48 z M89.86 20 l0 -14.3 l5.34 0 l0 4.88 l3.32 -4.88 l5.48 0 l-4.66 6.5 l4.92 7.8 l-6.1 0 l-2.96 -5.14 l0 5.14 l-5.34 0 z M105.5 20 l0 -14.3 l10.68 0 l0 4.06 l-5.38 0 l0 1.22 l4.24 0 l0 3.68 l-4.24 0 l0 1.28 l5.68 0 l0 4.06 l-10.98 0 z M123.54 15.94 l0.42 0 c1.8 0 2.48 -0.8 2.48 -3.02 l0 -0.16 c0 -2.42 -0.8 -3 -2.52 -3 l-0.38 0 l0 6.18 z M118.2 20 l0 -14.3 l5.92 0 c5.18 0 7.88 2.28 7.88 6.96 l0 0.14 c0 4.72 -2.8 7.2 -7.86 7.2 l-5.94 0 z"></path></g>
			</g>
		</svg>
	